# xmcd
#
# Track frame offsets:
# 150
# 16187
# 32224
# 48261
# 64298
# 80335
# 96372
# 112409
# 128446
# 144483
# 160520
# 176557
# 192594
# 208631
# 224668
# 240705
# 256742
# 272779
# 288816
#
# Disc length: 4062 seconds
#
#
# Revision: 0
# Processed by: cddbd v1.5PL3 Copyright (c) Steve Scherf et al.
# Submitted via: FreeRIP 2.60 
#
DISCID=170fdc13
DTITLE=Margarita Madness - Margarita Madness
DYEAR=2004
DGENRE=Country
TTITLE0=Margarita Madness
TTITLE1=Margarita Madness
TTITLE2=Margarita Madness
TTITLE3=Margarita Madness
TTITLE4=Margarita Madness
TTITLE5=Margarita Madness
TTITLE6=Margarita Madness
TTITLE7=Margarita Madness
TTITLE8=Margarita Madness
TTITLE9=Margarita Madness
TTITLE10=Margarita Madness
TTITLE11=Margarita Madness
TTITLE12=Margarita Madness
TTITLE13=Margarita Madness
TTITLE14=Margarita Madness
TTITLE15=Margarita Madness
TTITLE16=Margarita Madness
TTITLE17=Margarita Madness
TTITLE18=Margarita Madness
EXTD=Margarita Madness
EXTT0=Margarita Madness
EXTT1=Margarita Madness
EXTT2=Margarita Madness
EXTT3=Margarita Madness
EXTT4=Margarita Madness
EXTT5=Margarita Madness
EXTT6=Margarita Madness
EXTT7=Margarita Madness
EXTT8=Margarita Madness
EXTT9=Margarita Madness
EXTT10=Margarita Madness
EXTT11=Margarita Madness
EXTT12=Margarita Madness
EXTT13=Margarita Madness
EXTT14=Margarita Madness
EXTT15=Margarita Madness
EXTT16=Margarita Madness
EXTT17=Margarita Madness
EXTT18=Margarita Madness
PLAYORDER=
